:version 1.10
:name ASF
:units
  mass 1
  length 1
  angle deg
:documentation
  ASF file generated by Kaydara
:root
  axis xyz
  order  tx ty tz rx ry rz
  position 0 0 0
  orientation 0 0 0
:bonedata
  begin
    id 1
    name LeftUpLegDummy
    direction 1 -2.30186e-007 -8.31532e-007
    length 2.93387
    axis 0 0 0 xyz
  end
  begin
    id 2
    name LeftUpLeg
    direction -1.82929e-007 -1 -1.48925e-009
    length 17.3336
    axis -3.48766 0.00143442 -0.000521554 xyz
    dof rx ry rz
  end
  begin
    id 3
    name LeftLeg
    direction -1.82929e-007 -1 -5.23717e-011
    length 14.9995
    axis 3.68178 -0.00654042 -0.000282425 xyz
    dof rx ry rz
  end
  begin
    id 4
    name LeftFoot
    direction 8.31532e-007 -4.54534e-011 1
    length 6.74421
    axis 1.87234e-006 4.66016e-005 -5.96866e-006 xyz
    dof rx ry rz
  end
  begin
    id 5
    name LeftToes
    direction 0.00818058 -0.00485161 0.999955
    length 3.85048
    axis 1.06247e-005 4.65869e-005 -5.96999e-006 xyz
    dof rx ry rz
  end
  begin
    id 6
    name SpineDummy
    direction -5.8607e-008 0.943407 -0.331637
    length 5.93572
    axis 0 0 0 xyz
  end
  begin
    id 7
    name Spine
    direction -1.04988e-007 0.999988 0.00495137
    length 10.1015
    axis -0.001389 0.000121417 6.61666e-006 xyz
    dof rx ry rz
  end
  begin
    id 8
    name Spine1
    direction 0 0 0
    length 0
    axis -0.001389 0.00012144 6.56766e-006 xyz
    dof rx ry rz
  end
  begin
    id 9
    name RightShoulderDummy
    direction -0.98348 0.17941 -0.0240696
    length 3.59882
    axis -0.001389 0.00012144 6.56766e-006 xyz
  end
  begin
    id 10
    name RightShoulder
    direction -0.978693 0.204882 0.0135597
    length 2.70001
    axis 0.215806 0.000203631 -0.00679732 xyz
    dof rx ry rz
  end
  begin
    id 11
    name RightArm
    direction -1 3.85509e-006 8.31394e-007
    length 10.2459
    axis -23.2009 -0.134239 -0.964098 xyz
    dof rx ry rz
  end
  begin
    id 12
    name RightForeArm
    direction -1 3.85569e-006 8.3129e-007
    length 8.16799
    axis -9.92322 0.0658061 0.17887 xyz
    dof rx ry rz
  end
  begin
    id 13
    name RightHand
    direction -0.992843 -0.0414604 0.112003
    length 5.28593
    axis -0.00960638 0.00330669 -0.185225 xyz
    dof rx ry rz
  end
  begin
    id 14
    name LeftShoulder1Dummy
    direction 0.983523 0.179172 -0.0240748
    length 3.59866
    axis -0.001389 0.00012144 6.56766e-006 xyz
  end
  begin
    id 15
    name LeftShoulder1
    direction 0.978627 0.205195 0.0135605
    length 2.70019
    axis -0.001389 0.00012144 6.57583e-006 xyz
    dof rx ry rz
  end
  begin
    id 16
    name LeftArm
    direction 1 3.51895e-006 -8.60188e-007
    length 10.2459
    axis -23.1894 0.134785 0.967513 xyz
    dof rx ry rz
  end
  begin
    id 17
    name LeftForeArm
    direction 1 3.51921e-006 -7.32029e-007
    length 8.16799
    axis -9.91835 -0.0656957 -0.177789 xyz
    dof rx ry rz
  end
  begin
    id 18
    name LeftHand
    direction 0.992938 -0.0411636 0.11126
    length 5.32135
    axis -0.00960237 -0.00340661 0.185177 xyz
    dof rx ry rz
  end
  begin
    id 19
    name HEadDummy
    direction 1.01974e-006 0.999861 -0.016675
    length 2.99946
    axis -0.001389 0.00012144 6.56766e-006 xyz
  end
  begin
    id 20
    name HEad
    direction -0.0222689 0.980941 0.193023
    length 5.12695
    axis -0.001389 0.00012144 6.56766e-006 xyz
    dof rx ry rz
  end
  begin
    id 21
    name RightUpLegDummy
    direction -1 2.30186e-007 8.31532e-007
    length 2.93387
    axis 0 0 0 xyz
  end
  begin
    id 22
    name RightUpLeg
    direction -1.82966e-007 -1 1.56832e-007
    length 17.3336
    axis -3.4909 -0.000906625 0.00028951 xyz
    dof rx ry rz
  end
  begin
    id 23
    name RightLeg
    direction -1.82786e-007 -1 -1.80317e-007
    length 14.9995
    axis 3.68513 0.0193739 -0.131021 xyz
    dof rx ry rz
  end
  begin
    id 24
    name RightFoot
    direction 8.31721e-007 -4.63324e-011 1
    length 6.74421
    axis 4.81691e-005 -0.120479 -0.188785 xyz
    dof rx ry rz
  end
  begin
    id 25
    name RightToes
    direction 0.00124746 -0.014064 0.9999
    length 3.85082
    axis 0.000481921 0.542163 -0.142575 xyz
    dof rx ry rz
  end
:hierarchy
  begin
    root LeftUpLegDummy SpineDummy RightUpLegDummy
    LeftUpLegDummy LeftUpLeg
    LeftUpLeg LeftLeg
    LeftLeg LeftFoot
    LeftFoot LeftToes
    SpineDummy Spine
    Spine Spine1
    Spine1 RightShoulderDummy LeftShoulder1Dummy HEadDummy
    RightShoulderDummy RightShoulder
    RightShoulder RightArm
    RightArm RightForeArm
    RightForeArm RightHand
    LeftShoulder1Dummy LeftShoulder1
    LeftShoulder1 LeftArm
    LeftArm LeftForeArm
    LeftForeArm LeftHand
    HEadDummy HEad
    RightUpLegDummy RightUpLeg
    RightUpLeg RightLeg
    RightLeg RightFoot
    RightFoot RightToes
  end

:SAMPLES-PER-SECOND 30
:FULLY-SPECIFIED
:DEGREES
228
root  -4.32998 33.8718 9.99006 7.40973 17.2831 0.11187
LeftUpLeg  -13.9432 13.664 9.32856
LeftLeg  20.0911 25.3142 7.17479
LeftFoot  7.10488 -0.214148 3.44843
LeftToes  -12.456 1.85109e-006 5.31342e-008
Spine  2.05184 2.48488 -0.639207
Spine1  3.85464 5.20093 -1.5202
RightShoulder  0.153522 6.53243 12.774
RightArm  -35.4381 -15.2207 67.0764
RightForeArm  49.7056 10.1654 1.7874
RightHand  0.866937 -11.6264 -8.12533
LeftShoulder1  0.00304488 2.36469 -8.53548
LeftArm  -24.7785 21.945 -70.9354
LeftForeArm  30.4203 -15.0272 -2.70673
LeftHand  0.060859 4.3187 1.242
HEad  -10.5244 -4.71101 -1.40625
RightUpLeg  -8.36149 -13.0237 3.11791
RightLeg  17.2921 -12.5556 -3.00875
RightFoot  -6.79598 0.0702464 1.56075
RightToes  -24.6051 -0.10859 -0.212778
229
root  -4.44888 33.8856 10.0299 7.16941 16.4358 0.349645
LeftUpLeg  -14.575 11.652 8.49508
LeftLeg  22.1251 22.9052 7.39317
LeftFoot  4.4117 -0.0735919 1.91038
LeftToes  -9.82645 1.85109e-006 5.31342e-008
Spine  2.15878 2.51025 -0.526651
Spine1  4.0734 5.24392 -1.32107
RightShoulder  0.152221 6.41913 13.029
RightArm  -35.8129 -15.2157 65.1352
RightForeArm  47.7754 10.4543 1.84297
RightHand  0.993565 -12.0656 -9.00577
LeftShoulder1  0.00193409 2.28106 -8.41513
LeftArm  -23.7596 22.9208 -71.7581
LeftForeArm  30.6879 -15.5119 -2.79823
LeftHand  0.0227167 4.1893 0.250721
HEad  -10.8984 -3.70415 -1.67288
RightUpLeg  -8.02851 -12.5643 2.96227
RightLeg  17.2018 -12.1889 -2.90233
RightFoot  -6.90016 0.074057 1.52775
RightToes  -24.1668 -0.105884 -0.209451
230
root  -4.53861 33.9004 10.0521 6.87607 15.5942 0.626362
LeftUpLeg  -15.16 9.97221 7.54898
LeftLeg  24.0373 22.117 7.94934
LeftFoot  2.90169 -0.0303994 1.2002
LeftToes  -9.2192 1.85109e-006 5.31342e-008
Spine  2.29097 2.66758 -0.476807
Spine1  4.33462 5.54344 -1.22637
RightShoulder  0.152948 6.57406 13.0869
RightArm  -36.4212 -15.1923 63.4881
RightForeArm  46.2632 10.4666 1.84754
RightHand  1.13819 -12.527 -9.96715
LeftShoulder1  0.000900245 2.32456 -8.30402
LeftArm  -22.625 23.7212 -72.295
LeftForeArm  30.8152 -17.4825 -3.17567
LeftHand  6.98422e-005 3.86776 -0.367217
HEad  -11.1378 -3.17773 -1.79373
RightUpLeg  -7.70082 -12.185 2.70334
RightLeg  17.229 -11.7436 -2.80396
RightFoot  -7.04336 0.0766014 1.4935
RightToes  -23.7124 -0.10463 -0.207906
231
root  -4.59781 33.8993 10.0646 6.52197 14.7665 0.963289
LeftUpLeg  -15.9111 8.89587 6.55212
LeftLeg  26.2566 21.6528 8.71839
LeftFoot  1.81854 -0.0114539 0.721664
LeftToes  -8.6886 1.85109e-006 5.31342e-008
Spine  2.4645 2.92447 -0.491839
Spine1  4.669 6.04935 -1.24975
RightShoulder  0.158159 6.885 12.9876
RightArm  -37.2143 -14.9383 62.1624
RightForeArm  45.8484 10.0442 1.77154
RightHand  1.2429 -12.8956 -10.5895
LeftShoulder1  -5.27604e-005 2.49393 -8.19944
LeftArm  -21.7388 24.1974 -72.5948
LeftForeArm  30.4613 -20.0399 -3.67892
LeftHand  -0.00558451 3.59433 -0.546877
HEad  -11.1949 -3.05659 -1.80032
RightUpLeg  -7.34739 -11.6873 2.33462
RightLeg  17.3586 -11.4419 -2.76027
RightFoot  -7.27646 0.0760102 1.49741
RightToes  -23.5258 -0.103728 -0.206791
232
root  -4.63775 33.8809 10.0794 6.20132 14.2325 1.17773
LeftUpLeg  -17.0368 8.2037 5.80966
LeftLeg  28.4864 19.8248 8.90482
LeftFoot  0.917689 -0.00242991 0.303407
LeftToes  -8.45391 1.85109e-006 5.31342e-008
Spine  2.62681 3.1926 -0.492532
Spine1  4.97802 6.58985 -1.2452
RightShoulder  0.165033 7.21749 12.943
RightArm  -37.7619 -14.5481 60.9495
RightForeArm  46.2593 9.43787 1.66131
RightHand  1.30302 -13.2302 -10.8252
LeftShoulder1  -0.000921034 2.6516 -8.21735
LeftArm  -20.9749 24.3869 -72.5527
LeftForeArm  29.6057 -22.7912 -4.24009
LeftHand  0.00155007 3.32016 -0.315817
HEad  -11.1603 -3.3169 -1.73625
RightUpLeg  -7.00795 -11.5075 2.06897
RightLeg  17.4398 -11.0462 -2.68273
RightFoot  -7.57053 0.0755344 1.49946
RightToes  -23.1274 -0.103142 -0.206064
233
root  -4.66183 33.8576 10.09 5.92861 14.185 1.31241
LeftUpLeg  -18.2077 7.30354 5.37798
LeftLeg  29.4649 16.0892 7.62142
LeftFoot  0.246937 -3.76772e-005 0.0174754
LeftToes  -8.83562 1.85109e-006 5.31342e-008
Spine  2.75238 3.40813 -0.486312
Spine1  5.21315 7.03117 -1.23062
RightShoulder  0.172848 7.50858 12.9729
RightArm  -38.2572 -14.1144 59.9612
RightForeArm  47.1959 8.72155 1.53092
RightHand  1.36975 -13.437 -11.2133
LeftShoulder1  -0.00170068 2.82673 -8.23696
LeftArm  -20.4516 24.2419 -72.3167
LeftForeArm  28.8468 -25.3753 -4.78892
LeftHand  0.0140688 3.00184 0.166593
HEad  -11.0186 -3.90271 -1.57114
RightUpLeg  -6.66505 -11.7357 1.8598
RightLeg  17.4478 -10.6534 -2.59027
RightFoot  -7.84599 0.076127 1.49524
RightToes  -23.1702 -0.102836 -0.205682
234
root  -4.68031 33.8326 10.0936 5.74674 14.4644 1.39329
LeftUpLeg  -19.2245 6.12107 5.2629
LeftLeg  28.6222 10.9753 5.05619
LeftFoot  0.576362 -0.000317716 0.0631585
LeftToes  -12.5928 1.85109e-006 5.31342e-008
Spine  2.82785 3.59711 -0.500215
Spine1  5.35058 7.42599 -1.25467
RightShoulder  0.177681 7.71229 12.885
RightArm  -38.8515 -13.7697 59.4964
RightForeArm  48.1253 8.28745 1.45156
RightHand  1.39273 -13.6127 -11.2539
LeftShoulder1  -0.0023878 3.04059 -8.19521
LeftArm  -20.1238 23.8167 -71.9699
LeftForeArm  28.3537 -27.7165 -5.30746
LeftHand  0.0254136 2.68606 0.712163
HEad  -10.8047 -4.72218 -1.3424
RightUpLeg  -6.41693 -12.2253 1.70865
RightLeg  17.4641 -10.2641 -2.49994
RightFoot  -8.09508 0.0784025 1.48564
RightToes  -23.4569 -0.102777 -0.205602
